<svg xmlns="http://www.w3.org/2000/svg" viewBox="0 0 532 284" role="img" aria-labelledby="title">
  <title id="title">Ruta del Telar</title>
  <g fill="#0f314b">
    <rect x="24" y="20" width="18" height="182" rx="5" />
    <rect x="55" y="20" width="18" height="182" rx="5" />
    <rect x="86" y="20" width="18" height="182" rx="5" />
    <rect x="117" y="20" width="18" height="182" rx="5" />
    <rect x="148" y="20" width="18" height="182" rx="5" />
    <rect x="8" y="176" width="176" height="12" rx="6" />
    <rect x="8" y="207" width="176" height="12" rx="6" />
    <path d="M31 30c6 34 4 59-2 76-5 16-6 32-2 47 5 19 4 35-2 48h17c6-24 5-43-1-58-5-14-4-27 1-41 7-22 8-45 2-72z" />
    <path d="M62 30c6 34 4 59-2 76-5 16-6 32-2 47 5 19 4 35-2 48h17c6-24 5-43-1-58-5-14-4-27 1-41 7-22 8-45 2-72z" />
    <path d="M93 30c6 34 4 59-2 76-5 16-6 32-2 47 5 19 4 35-2 48h17c6-24 5-43-1-58-5-14-4-27 1-41 7-22 8-45 2-72z" />
    <path d="M124 30c6 34 4 59-2 76-5 16-6 32-2 47 5 19 4 35-2 48h17c6-24 5-43-1-58-5-14-4-27 1-41 7-22 8-45 2-72z" />
    <path d="M155 30c6 34 4 59-2 76-5 16-6 32-2 47 5 19 4 35-2 48h17c6-24 5-43-1-58-5-14-4-27 1-41 7-22 8-45 2-72z" />
  </g>
  <g fill="#0f314b" font-family="Impact, 'Arial Black', sans-serif" font-weight="900">
    <text x="204" y="110" font-size="94">RUTA</text>
    <text x="404" y="104" font-size="42">DEL</text>
    <text x="202" y="240" font-size="108">TELAR</text>
  </g>
</svg>
